<?xml version="1.0" standalone="no"?>
<!DOCTYPE svg PUBLIC "-//W3C//DTD SVG 20010904//EN"
 "http://www.w3.org/TR/2001/REC-SVG-20010904/DTD/svg10.dtd">
<svg version="1.0" xmlns="http://www.w3.org/2000/svg"
 width="700.000000pt" height="120.000000pt" viewBox="0 0 700.000000 120.000000"
 preserveAspectRatio="xMidYMid meet">

<g transform="translate(0.000000,120.000000) scale(0.100000,-0.100000)"
fill="#000000" stroke="none">
<path d="M4250 1101 c-53 -16 -90 -43 -118 -84 -62 -89 -86 -208 -86 -422 0
-242 34 -375 115 -456 91 -91 241 -73 316 38 50 74 74 181 80 363 8 262 -31
436 -118 514 -53 49 -125 66 -189 47z m130 -107 c50 -45 76 -124 92 -274 26
-256 -24 -499 -112 -545 -86 -44 -161 6 -202 135 -21 69 -23 93 -23 285 0 190
2 217 23 282 46 148 136 195 222 117z"/>
<path d="M6561 1100 c-90 -21 -155 -105 -193 -251 -19 -72 -22 -110 -22 -259
0 -197 19 -299 73 -394 74 -132 226 -153 333 -46 27 26 48 51 48 56 0 5 -14
17 -31 27 l-31 17 -37 -41 c-30 -34 -44 -42 -81 -46 -90 -10 -149 64 -177 223
-20 120 -14 413 12 496 32 106 105 163 182 144 27 -7 86 -60 95 -85 3 -12 10
-11 36 8 31 21 31 23 17 51 -20 39 -78 85 -124 99 -43 12 -51 12 -100 1z"/>
<path d="M1505 1086 c-119 -52 -177 -214 -177 -496 1 -320 69 -478 219 -500
72 -11 128 6 179 54 51 49 55 70 16 90 -26 14 -28 13 -49 -19 -26 -39 -79 -60
-128 -51 -109 21 -155 156 -155 451 0 212 25 322 87 380 56 51 125 45 187 -16
36 -37 42 -39 63 -28 13 7 23 19 23 27 0 25 -40 71 -84 97 -49 29 -130 33
-181 11z"/>
<path d="M1950 1089 c-61 -24 -116 -106 -146 -216 -21 -78 -30 -352 -15 -463
21 -160 74 -265 153 -306 38 -20 147 -20 185 0 65 34 108 98 140 211 23 80 29
389 9 500 -25 145 -79 240 -153 271 -37 16 -136 17 -173 3z m150 -81 c72 -49
110 -196 110 -422 -1 -291 -66 -436 -188 -423 -110 12 -162 151 -162 432 0
167 18 274 58 350 43 81 118 106 182 63z"/>
<path d="M3360 589 l0 -500 38 3 37 3 3 428 c1 235 6 427 10 427 4 0 16 -16
27 -35 11 -19 57 -88 101 -153 l82 -119 55 81 c131 196 153 225 162 226 7 0 9
-148 7 -431 l-2 -430 37 3 38 3 3 498 2 497 -43 0 c-42 0 -46 -2 -79 -52 -79
-120 -171 -253 -177 -255 -3 -1 -29 32 -58 75 -165 246 -153 232 -200 232
l-43 0 0 -501z"/>
<path d="M4642 594 l3 -499 40 0 40 0 5 191 5 191 33 37 c17 20 32 41 32 46 0
6 7 10 15 10 8 0 15 -5 15 -11 0 -11 26 -75 107 -264 34 -81 86 -197 89 -203
4 -6 38 7 57 22 16 12 15 17 -14 82 -16 38 -36 83 -43 99 -8 17 -43 98 -80
180 -36 83 -66 157 -66 164 0 7 22 38 48 69 92 108 116 151 120 217 2 47 -1
67 -17 92 -36 57 -68 67 -239 71 l-152 4 2 -498z m288 403 c13 -7 29 -24 34
-38 16 -48 -2 -96 -70 -182 -35 -45 -83 -108 -107 -139 -39 -53 -77 -78 -63
-42 3 9 6 105 6 215 l0 199 88 0 c50 0 98 -6 112 -13z"/>
<path d="M5183 596 l0 -496 23 -6 c59 -15 59 -15 64 191 l5 190 122 148 c175
211 187 230 191 302 2 47 -1 67 -17 92 -36 57 -68 67 -238 71 l-151 4 1 -496z
m308 385 c25 -31 24 -79 -3 -129 -20 -37 -122 -167 -200 -256 l-27 -31 4 210
c2 116 4 216 4 223 1 11 23 13 102 10 92 -3 103 -5 120 -27z"/>
<path d="M5650 589 l0 -500 38 3 37 3 5 333 5 333 97 2 98 2 2 -335 3 -335 40
0 40 0 3 498 2 497 -45 0 -46 0 3 -125 3 -125 -102 0 -103 0 0 125 0 125 -40
0 -40 0 0 -501z"/>
<path d="M6170 595 l0 -495 24 -6 c14 -3 33 -4 43 -2 17 3 18 28 21 501 l2
497 -45 0 -45 0 0 -495z"/>
<path d="M2380 590 l0 -490 40 0 40 0 0 183 0 184 91 109 c152 181 200 243
215 279 21 50 18 124 -6 163 -32 52 -69 62 -235 62 l-145 0 0 -490z m277 409
c15 -5 31 -16 35 -22 12 -18 9 -96 -3 -120 -21 -39 -223 -287 -229 -279 -3 4
-4 103 -2 220 l3 212 84 0 c46 0 96 -5 112 -11z"/>
<path d="M2792 1073 c16 -38 174 -343 184 -358 11 -15 14 -81 14 -317 l0 -298
40 0 40 0 0 293 0 292 100 195 c55 107 100 196 100 198 0 1 -17 2 -38 2 l-38
0 -64 -127 c-35 -71 -69 -143 -77 -160 -7 -18 -17 -33 -21 -33 -4 0 -42 72
-85 160 l-77 160 -41 0 c-22 0 -39 -3 -37 -7z"/>
<path d="M323 1059 c-81 -15 -152 -70 -195 -152 -18 -34 -23 -58 -23 -127 0
-75 3 -91 28 -132 15 -27 31 -48 36 -48 4 0 16 9 26 20 17 19 17 21 -1 62 -28
62 -25 151 6 206 75 132 256 140 344 14 41 -58 48 -147 17 -218 -21 -48 -21
-48 -2 -68 27 -26 44 -11 71 60 78 210 -93 425 -307 383z"/>
<path d="M855 1024 c-44 -25 -100 -58 -124 -71 l-44 -26 24 -18 c13 -10 29
-19 36 -19 6 0 49 23 96 50 47 28 89 50 94 50 11 0 155 -81 178 -100 12 -10
15 -35 15 -115 0 -96 -2 -106 -25 -133 -25 -30 -26 -30 -58 -14 -48 24 -149
28 -203 7 -45 -17 -46 -17 -70 6 -20 19 -24 32 -24 80 0 52 -3 60 -29 78 -16
12 -32 21 -35 21 -3 0 -6 -40 -6 -88 0 -85 1 -89 30 -117 17 -16 30 -33 30
-38 0 -5 -13 -25 -30 -44 -29 -32 -30 -38 -30 -124 l0 -91 33 21 c30 19 32 24
35 84 2 53 7 68 28 87 23 23 25 23 58 8 55 -27 116 -32 166 -13 81 30 81 30
106 -1 21 -26 23 -39 24 -136 l0 -107 -96 -56 -96 -57 -94 57 -94 56 -30 -18
c-17 -9 -30 -20 -30 -23 0 -8 236 -140 249 -140 13 0 217 116 244 138 15 13
17 34 17 147 l0 132 -36 36 -37 36 37 41 37 41 -3 136 -3 137 -125 72 c-69 40
-127 73 -130 73 -3 1 -41 -20 -85 -45z m135 -454 c0 -5 -22 -10 -49 -10 -28 0
-53 5 -56 10 -4 6 15 10 49 10 31 0 56 -4 56 -10z"/>
<path d="M263 625 c-69 -35 -83 -52 -58 -72 84 -64 206 -77 287 -29 71 42 75
50 35 81 -71 53 -180 61 -264 20z m135 -52 c-10 -2 -28 -2 -40 0 -13 2 -5 4
17 4 22 1 32 -1 23 -4z"/>
<path d="M134 498 c-34 -68 -41 -147 -20 -221 24 -81 101 -159 181 -182 111
-33 225 6 297 100 45 60 62 118 55 193 -4 55 -48 162 -65 162 -4 0 -16 -10
-26 -21 -18 -21 -18 -23 3 -64 58 -116 -3 -265 -124 -300 -96 -29 -193 11
-239 100 -29 55 -28 146 1 201 l22 42 -23 21 c-12 12 -25 21 -29 21 -4 0 -18
-23 -33 -52z"/>
</g>
</svg>
