<?xml version="1.0" standalone="no"?>
<!DOCTYPE svg PUBLIC "-//W3C//DTD SVG 20010904//EN"
 "http://www.w3.org/TR/2001/REC-SVG-20010904/DTD/svg10.dtd">
<svg version="1.0" xmlns="http://www.w3.org/2000/svg"
 width="500.000000pt" height="500.000000pt" viewBox="0 0 500.000000 500.000000"
 preserveAspectRatio="xMidYMid meet">

<g transform="translate(0.000000,500.000000) scale(0.100000,-0.100000)"
fill="#000000" stroke="none">
<path d="M3425 4234 c-93 -53 -204 -115 -245 -138 -41 -24 -190 -107 -330
-186 -140 -78 -256 -144 -258 -145 -2 -2 61 -38 139 -81 l142 -78 36 20 c20
12 177 101 350 198 172 98 321 181 331 183 18 5 70 -21 275 -137 55 -32 170
-97 255 -145 85 -49 167 -97 183 -107 l27 -19 0 -407 0 -407 -91 -98 c-55 -59
-98 -97 -110 -97 -11 0 -37 9 -57 19 -52 26 -223 78 -306 92 -43 7 -123 10
-210 6 -158 -6 -282 -32 -400 -86 -38 -17 -76 -31 -86 -31 -9 0 -58 42 -108
94 l-92 93 0 220 c0 164 -3 223 -12 231 -17 13 -256 152 -263 152 -3 0 -5
-162 -5 -360 l0 -360 126 -131 127 -130 -25 -27 c-13 -15 -70 -76 -126 -135
l-102 -109 0 -360 0 -360 38 22 c20 12 81 47 134 78 61 35 99 63 102 76 3 12
6 114 6 227 l0 206 99 104 99 104 44 -22 c123 -63 243 -97 392 -113 174 -18
367 16 550 96 l79 35 30 -28 c16 -15 60 -63 98 -106 l69 -77 -2 -413 -3 -412
-355 -202 c-195 -112 -361 -203 -367 -203 -12 0 -117 58 -538 300 -99 57 -185
103 -191 103 -15 0 -273 -146 -274 -155 0 -3 38 -27 85 -53 47 -25 268 -150
492 -276 224 -127 414 -231 423 -231 14 -1 165 82 748 414 l262 149 0 554 0
553 -126 131 -126 131 126 135 126 136 0 547 0 548 -122 69 c-68 38 -231 130
-363 205 -467 265 -511 290 -520 290 -6 0 -86 -43 -180 -96z m318 -1815 c20
-5 37 -14 37 -18 0 -32 -210 -53 -313 -31 -45 9 -57 15 -55 28 2 9 17 20 33
23 50 11 257 10 298 -2z"/>
<path d="M1300 4304 c-114 -20 -147 -27 -199 -44 -162 -53 -310 -146 -431
-269 -171 -172 -270 -368 -305 -598 -47 -313 17 -597 192 -846 l55 -78 43 38
c67 59 127 108 157 127 l28 18 -44 62 c-89 125 -135 245 -156 403 -18 145 14
322 85 463 195 389 663 547 1047 354 193 -97 344 -285 409 -509 30 -106 33
-322 5 -430 -22 -86 -92 -234 -140 -297 -20 -26 -36 -49 -36 -51 0 -2 22 -18
50 -36 27 -18 74 -55 104 -82 30 -27 58 -49 63 -49 28 0 145 190 198 323 55
136 70 227 69 422 -1 150 -4 182 -27 267 -84 316 -289 565 -582 708 -159 77
-253 101 -425 105 -74 2 -146 2 -160 -1z"/>
<path d="M1301 2709 c-208 -24 -419 -120 -571 -258 l-55 -50 55 -51 c118 -108
313 -209 475 -246 108 -25 310 -25 424 -1 185 40 345 128 526 289 13 11 -56
79 -140 137 -145 100 -301 159 -475 181 -95 11 -133 11 -239 -1z m284 -306
c16 -9 10 -12 -40 -19 -33 -4 -89 -8 -125 -8 -131 0 -229 24 -152 37 52 9 297
1 317 -10z"/>
<path d="M2159 2269 c-41 -34 -91 -73 -111 -87 -21 -13 -38 -28 -38 -33 0 -5
17 -31 38 -59 52 -69 107 -182 134 -277 33 -113 32 -324 0 -438 -41 -140 -104
-247 -212 -356 -163 -164 -322 -229 -558 -229 -378 0 -690 272 -762 664 -17
93 -8 278 20 374 24 87 85 210 134 275 l35 46 -111 88 -111 87 -38 -44 c-49
-57 -115 -174 -155 -274 -83 -208 -97 -490 -34 -717 105 -384 419 -687 800
-773 102 -23 260 -31 364 -17 334 45 653 268 815 571 85 161 120 292 128 495
11 276 -70 524 -245 743 l-18 24 -75 -63z"/>
</g>
</svg>
